{
  "asset": {
    "version": "2.0",
    "generator": "Bunnyland 3D repo asset generator"
  },
  "buffers": [
    {
      "byteLength": 6504,
      "uri": "bunnyland-3d.bin"
    }
  ],
  "bufferViews": [
    {
      "buffer": 0,
      "byteOffset": 0,
      "byteLength": 576,
      "target": 34962
    },
    {
      "buffer": 0,
      "byteOffset": 576,
      "byteLength": 576,
      "target": 34962
    },
    {
      "buffer": 0,
      "byteOffset": 1152,
      "byteLength": 480,
      "target": 34963
    },
    {
      "buffer": 0,
      "byteOffset": 1632,
      "byteLength": 264,
      "target": 34962
    },
    {
      "buffer": 0,
      "byteOffset": 1896,
      "byteLength": 264,
      "target": 34962
    },
    {
      "buffer": 0,
      "byteOffset": 2160,
      "byteLength": 240,
      "target": 34963
    },
    {
      "buffer": 0,
      "byteOffset": 2400,
      "byteLength": 240,
      "target": 34962
    },
    {
      "buffer": 0,
      "byteOffset": 2640,
      "byteLength": 240,
      "target": 34962
    },
    {
      "buffer": 0,
      "byteOffset": 2880,
      "byteLength": 216,
      "target": 34963
    },
    {
      "buffer": 0,
      "byteOffset": 3096,
      "byteLength": 672,
      "target": 34962
    },
    {
      "buffer": 0,
      "byteOffset": 3768,
      "byteLength": 672,
      "target": 34962
    },
    {
      "buffer": 0,
      "byteOffset": 4440,
      "byteLength": 576,
      "target": 34963
    },
    {
      "buffer": 0,
      "byteOffset": 5016,
      "byteLength": 192,
      "target": 34962
    },
    {
      "buffer": 0,
      "byteOffset": 5208,
      "byteLength": 192,
      "target": 34962
    },
    {
      "buffer": 0,
      "byteOffset": 5400,
      "byteLength": 168,
      "target": 34963
    },
    {
      "buffer": 0,
      "byteOffset": 5568,
      "byteLength": 96,
      "target": 34962
    },
    {
      "buffer": 0,
      "byteOffset": 5664,
      "byteLength": 96,
      "target": 34962
    },
    {
      "buffer": 0,
      "byteOffset": 5760,
      "byteLength": 72,
      "target": 34963
    },
    {
      "buffer": 0,
      "byteOffset": 5832,
      "byteLength": 12
    },
    {
      "buffer": 0,
      "byteOffset": 5844,
      "byteLength": 36
    },
    {
      "buffer": 0,
      "byteOffset": 5880,
      "byteLength": 48
    },
    {
      "buffer": 0,
      "byteOffset": 5928,
      "byteLength": 48
    },
    {
      "buffer": 0,
      "byteOffset": 5976,
      "byteLength": 48
    },
    {
      "buffer": 0,
      "byteOffset": 6024,
      "byteLength": 20
    },
    {
      "buffer": 0,
      "byteOffset": 6044,
      "byteLength": 60
    },
    {
      "buffer": 0,
      "byteOffset": 6104,
      "byteLength": 80
    },
    {
      "buffer": 0,
      "byteOffset": 6184,
      "byteLength": 80
    },
    {
      "buffer": 0,
      "byteOffset": 6264,
      "byteLength": 80
    },
    {
      "buffer": 0,
      "byteOffset": 6344,
      "byteLength": 80
    },
    {
      "buffer": 0,
      "byteOffset": 6424,
      "byteLength": 80
    }
  ],
  "accessors": [
    {
      "bufferView": 0,
      "componentType": 5126,
      "count": 48,
      "type": "VEC3",
      "min": [
        -0.4755282581475768,
        -0.5,
        -0.4755282581475768
      ],
      "max": [
        0.4755282581475768,
        0.5,
        0.4755282581475768
      ]
    },
    {
      "bufferView": 1,
      "componentType": 5126,
      "count": 48,
      "type": "VEC3"
    },
    {
      "bufferView": 2,
      "componentType": 5123,
      "count": 240,
      "type": "SCALAR"
    },
    {
      "bufferView": 3,
      "componentType": 5126,
      "count": 22,
      "type": "VEC3",
      "min": [
        -0.5,
        -0.5,
        -0.4755282581475768
      ],
      "max": [
        0.5,
        0.5,
        0.4755282581475768
      ]
    },
    {
      "bufferView": 4,
      "componentType": 5126,
      "count": 22,
      "type": "VEC3"
    },
    {
      "bufferView": 5,
      "componentType": 5123,
      "count": 120,
      "type": "SCALAR"
    },
    {
      "bufferView": 6,
      "componentType": 5126,
      "count": 20,
      "type": "VEC3",
      "min": [
        -0.4698463103929542,
        -0.5,
        -0.49240387650610407
      ],
      "max": [
        0.5,
        0.5,
        0.492403876506104
      ]
    },
    {
      "bufferView": 7,
      "componentType": 5126,
      "count": 20,
      "type": "VEC3"
    },
    {
      "bufferView": 8,
      "componentType": 5123,
      "count": 108,
      "type": "SCALAR"
    },
    {
      "bufferView": 9,
      "componentType": 5126,
      "count": 56,
      "type": "VEC3",
      "min": [
        -0.5,
        -0.74,
        -0.5
      ],
      "max": [
        0.5,
        0.74,
        0.5
      ]
    },
    {
      "bufferView": 10,
      "componentType": 5126,
      "count": 56,
      "type": "VEC3"
    },
    {
      "bufferView": 11,
      "componentType": 5123,
      "count": 288,
      "type": "SCALAR"
    },
    {
      "bufferView": 12,
      "componentType": 5126,
      "count": 16,
      "type": "VEC3",
      "min": [
        -0.4504844339512096,
        -0.5,
        -0.4874639560909118
      ],
      "max": [
        0.5,
        0.5,
        0.4874639560909118
      ]
    },
    {
      "bufferView": 13,
      "componentType": 5126,
      "count": 16,
      "type": "VEC3"
    },
    {
      "bufferView": 14,
      "componentType": 5123,
      "count": 84,
      "type": "SCALAR"
    },
    {
      "bufferView": 15,
      "componentType": 5126,
      "count": 8,
      "type": "VEC3",
      "min": [
        -0.44,
        -0.44,
        -0.44
      ],
      "max": [
        0.44,
        0.44,
        0.44
      ]
    },
    {
      "bufferView": 16,
      "componentType": 5126,
      "count": 8,
      "type": "VEC3"
    },
    {
      "bufferView": 17,
      "componentType": 5123,
      "count": 36,
      "type": "SCALAR"
    },
    {
      "bufferView": 18,
      "componentType": 5126,
      "count": 3,
      "type": "SCALAR",
      "min": [
        0
      ],
      "max": [
        2
      ]
    },
    {
      "bufferView": 19,
      "componentType": 5126,
      "count": 3,
      "type": "VEC3"
    },
    {
      "bufferView": 20,
      "componentType": 5126,
      "count": 3,
      "type": "VEC4"
    },
    {
      "bufferView": 21,
      "componentType": 5126,
      "count": 3,
      "type": "VEC4"
    },
    {
      "bufferView": 22,
      "componentType": 5126,
      "count": 3,
      "type": "VEC4"
    },
    {
      "bufferView": 23,
      "componentType": 5126,
      "count": 5,
      "type": "SCALAR",
      "min": [
        0
      ],
      "max": [
        1
      ]
    },
    {
      "bufferView": 24,
      "componentType": 5126,
      "count": 5,
      "type": "VEC3"
    },
    {
      "bufferView": 25,
      "componentType": 5126,
      "count": 5,
      "type": "VEC4"
    },
    {
      "bufferView": 26,
      "componentType": 5126,
      "count": 5,
      "type": "VEC4"
    },
    {
      "bufferView": 27,
      "componentType": 5126,
      "count": 5,
      "type": "VEC4"
    },
    {
      "bufferView": 28,
      "componentType": 5126,
      "count": 5,
      "type": "VEC4"
    },
    {
      "bufferView": 29,
      "componentType": 5126,
      "count": 5,
      "type": "VEC4"
    }
  ],
  "scene": 0,
  "scenes": [
    {
      "nodes": [
        0
      ]
    }
  ],
  "nodes": [
    {
      "name": "Avatar",
      "children": [
        1,
        2,
        3,
        9,
        10,
        11,
        12,
        13,
        17,
        20
      ],
      "extras": {
        "bunnyland_node_name": "Avatar"
      }
    },
    {
      "name": "Body",
      "mesh": 0,
      "translation": [
        0,
        0.78,
        0
      ],
      "scale": [
        0.76,
        0.92,
        0.62
      ],
      "extras": {
        "bunnyland_node_name": "Body"
      }
    },
    {
      "name": "Belly",
      "mesh": 3,
      "translation": [
        0,
        0.84,
        0.25
      ],
      "scale": [
        0.46,
        0.72,
        0.12
      ],
      "extras": {
        "bunnyland_node_name": "Belly"
      }
    },
    {
      "name": "Head",
      "translation": [
        0,
        1.42,
        0
      ],
      "children": [
        4,
        5,
        6,
        7,
        8,
        14,
        15,
        16
      ],
      "extras": {
        "bunnyland_node_name": "Head"
      }
    },
    {
      "name": "Head.Shape",
      "mesh": 0,
      "translation": [
        0,
        0.06,
        0.02
      ],
      "scale": [
        1.12,
        1,
        1.04
      ],
      "extras": {
        "bunnyland_node_name": "Head.Shape"
      }
    },
    {
      "name": "Ear.L",
      "mesh": 1,
      "translation": [
        -0.18,
        0.56,
        -0.01
      ],
      "rotation": [
        0,
        0,
        0.087,
        0.996
      ],
      "scale": [
        0.25,
        0.65,
        0.22
      ],
      "extras": {
        "bunnyland_node_name": "Ear.L"
      }
    },
    {
      "name": "Ear.R",
      "mesh": 1,
      "translation": [
        0.18,
        0.56,
        -0.01
      ],
      "rotation": [
        0,
        0,
        -0.087,
        0.996
      ],
      "scale": [
        0.25,
        0.65,
        0.22
      ],
      "extras": {
        "bunnyland_node_name": "Ear.R"
      }
    },
    {
      "name": "InnerEar.L",
      "mesh": 4,
      "translation": [
        -0.18,
        0.57,
        0.06
      ],
      "rotation": [
        0,
        0,
        0.087,
        0.996
      ],
      "scale": [
        0.11,
        0.53,
        0.06
      ],
      "extras": {
        "bunnyland_node_name": "InnerEar.L"
      }
    },
    {
      "name": "InnerEar.R",
      "mesh": 4,
      "translation": [
        0.18,
        0.57,
        0.06
      ],
      "rotation": [
        0,
        0,
        -0.087,
        0.996
      ],
      "scale": [
        0.11,
        0.53,
        0.06
      ],
      "extras": {
        "bunnyland_node_name": "InnerEar.R"
      }
    },
    {
      "name": "Leg.L",
      "mesh": 1,
      "translation": [
        -0.22,
        0.25,
        0.15
      ],
      "rotation": [
        0.7071067811865475,
        0,
        0,
        0.7071067811865476
      ],
      "scale": [
        0.36,
        0.42,
        0.4
      ],
      "extras": {
        "bunnyland_node_name": "Leg.L"
      }
    },
    {
      "name": "Leg.R",
      "mesh": 1,
      "translation": [
        0.22,
        0.25,
        0.15
      ],
      "rotation": [
        0.7071067811865475,
        0,
        0,
        0.7071067811865476
      ],
      "scale": [
        0.36,
        0.42,
        0.4
      ],
      "extras": {
        "bunnyland_node_name": "Leg.R"
      }
    },
    {
      "name": "Arm.L",
      "mesh": 2,
      "translation": [
        -0.43,
        0.94,
        0.05
      ],
      "rotation": [
        0.13992743442345046,
        -0.09509458623653538,
        0.5539808149441307,
        0.8151580150118197
      ],
      "scale": [
        0.24,
        0.55,
        0.25
      ],
      "extras": {
        "bunnyland_node_name": "Arm.L"
      }
    },
    {
      "name": "Arm.R",
      "mesh": 2,
      "translation": [
        0.43,
        0.94,
        0.05
      ],
      "rotation": [
        0.13992743442345046,
        0.09509458623653538,
        -0.5539808149441307,
        0.8151580150118197
      ],
      "scale": [
        0.24,
        0.55,
        0.25
      ],
      "extras": {
        "bunnyland_node_name": "Arm.R"
      }
    },
    {
      "name": "Tail",
      "mesh": 0,
      "translation": [
        0,
        0.72,
        -0.37
      ],
      "scale": [
        0.5,
        0.5,
        0.5
      ],
      "extras": {
        "bunnyland_node_name": "Tail"
      }
    },
    {
      "name": "Eye.L",
      "mesh": 5,
      "translation": [
        -0.13,
        0.14,
        0.5
      ],
      "scale": [
        0.13,
        0.17,
        0.08
      ],
      "extras": {
        "bunnyland_node_name": "Eye.L"
      }
    },
    {
      "name": "Eye.R",
      "mesh": 5,
      "translation": [
        0.13,
        0.14,
        0.5
      ],
      "scale": [
        0.13,
        0.17,
        0.08
      ],
      "extras": {
        "bunnyland_node_name": "Eye.R"
      }
    },
    {
      "name": "Nose",
      "mesh": 5,
      "translation": [
        0,
        0.01,
        0.54
      ],
      "scale": [
        0.1,
        0.08,
        0.07
      ],
      "extras": {
        "bunnyland_node_name": "Nose"
      }
    },
    {
      "name": "Variant.scout",
      "children": [
        18,
        19
      ],
      "extras": {
        "bunnyland_node_name": "Variant.scout"
      }
    },
    {
      "name": "Scout.Neckerchief",
      "mesh": 6,
      "translation": [
        0,
        1.2,
        0.12
      ],
      "rotation": [
        0.707,
        0,
        0,
        0.707
      ],
      "scale": [
        0.42,
        0.42,
        0.2
      ],
      "extras": {
        "bunnyland_node_name": "Scout.Neckerchief"
      }
    },
    {
      "name": "Scout.Satchel",
      "mesh": 7,
      "translation": [
        0.42,
        0.68,
        -0.02
      ],
      "rotation": [
        0,
        0,
        -0.174,
        0.985
      ],
      "scale": [
        0.42,
        0.48,
        0.2
      ],
      "extras": {
        "bunnyland_node_name": "Scout.Satchel"
      }
    },
    {
      "name": "Variant.gardener",
      "children": [
        21,
        22,
        23
      ],
      "extras": {
        "bunnyland_node_name": "Variant.gardener"
      }
    },
    {
      "name": "Gardener.Apron",
      "mesh": 9,
      "translation": [
        0,
        0.78,
        0.3
      ],
      "scale": [
        0.72,
        0.82,
        0.12
      ],
      "extras": {
        "bunnyland_node_name": "Gardener.Apron"
      }
    },
    {
      "name": "Gardener.Hat.Brim",
      "mesh": 8,
      "translation": [
        0,
        1.82,
        0
      ],
      "scale": [
        1.45,
        0.08,
        1.45
      ],
      "extras": {
        "bunnyland_node_name": "Gardener.Hat.Brim"
      }
    },
    {
      "name": "Gardener.Hat.Crown",
      "mesh": 8,
      "translation": [
        0,
        1.99,
        0
      ],
      "scale": [
        0.66,
        0.34,
        0.66
      ],
      "extras": {
        "bunnyland_node_name": "Gardener.Hat.Crown"
      }
    }
  ],
  "meshes": [
    {
      "name": "FurSphere",
      "primitives": [
        {
          "attributes": {
            "POSITION": 0,
            "NORMAL": 1
          },
          "indices": 2,
          "material": 0
        }
      ]
    },
    {
      "name": "FurCapsule",
      "primitives": [
        {
          "attributes": {
            "POSITION": 9,
            "NORMAL": 10
          },
          "indices": 11,
          "material": 0
        }
      ]
    },
    {
      "name": "FurLimb",
      "primitives": [
        {
          "attributes": {
            "POSITION": 12,
            "NORMAL": 13
          },
          "indices": 14,
          "material": 0
        }
      ]
    },
    {
      "name": "BellyPatch",
      "primitives": [
        {
          "attributes": {
            "POSITION": 0,
            "NORMAL": 1
          },
          "indices": 2,
          "material": 1
        }
      ]
    },
    {
      "name": "InnerEar",
      "primitives": [
        {
          "attributes": {
            "POSITION": 9,
            "NORMAL": 10
          },
          "indices": 11,
          "material": 2
        }
      ]
    },
    {
      "name": "FaceDetail",
      "primitives": [
        {
          "attributes": {
            "POSITION": 0,
            "NORMAL": 1
          },
          "indices": 2,
          "material": 3
        }
      ]
    },
    {
      "name": "ScoutCloth",
      "primitives": [
        {
          "attributes": {
            "POSITION": 6,
            "NORMAL": 7
          },
          "indices": 8,
          "material": 4
        }
      ]
    },
    {
      "name": "ScoutBag",
      "primitives": [
        {
          "attributes": {
            "POSITION": 15,
            "NORMAL": 16
          },
          "indices": 17,
          "material": 5
        }
      ]
    },
    {
      "name": "GardenHat",
      "primitives": [
        {
          "attributes": {
            "POSITION": 3,
            "NORMAL": 4
          },
          "indices": 5,
          "material": 6
        }
      ]
    },
    {
      "name": "GardenCloth",
      "primitives": [
        {
          "attributes": {
            "POSITION": 15,
            "NORMAL": 16
          },
          "indices": 17,
          "material": 7
        }
      ]
    }
  ],
  "materials": [
    {
      "name": "Fur",
      "pbrMetallicRoughness": {
        "baseColorFactor": [
          0.537,
          0.706,
          0.98,
          1
        ],
        "metallicFactor": 0,
        "roughnessFactor": 0.82
      }
    },
    {
      "name": "Belly",
      "pbrMetallicRoughness": {
        "baseColorFactor": [
          0.84,
          0.9,
          1,
          1
        ],
        "metallicFactor": 0,
        "roughnessFactor": 0.86
      }
    },
    {
      "name": "InnerEar",
      "pbrMetallicRoughness": {
        "baseColorFactor": [
          0.95,
          0.58,
          0.68,
          1
        ],
        "metallicFactor": 0,
        "roughnessFactor": 0.8
      }
    },
    {
      "name": "Face",
      "pbrMetallicRoughness": {
        "baseColorFactor": [
          0.12,
          0.15,
          0.2,
          1
        ],
        "metallicFactor": 0,
        "roughnessFactor": 0.65
      }
    },
    {
      "name": "ScoutAccent",
      "pbrMetallicRoughness": {
        "baseColorFactor": [
          0.88,
          0.34,
          0.22,
          1
        ],
        "metallicFactor": 0,
        "roughnessFactor": 0.76
      }
    },
    {
      "name": "ScoutLeather",
      "pbrMetallicRoughness": {
        "baseColorFactor": [
          0.35,
          0.2,
          0.11,
          1
        ],
        "metallicFactor": 0,
        "roughnessFactor": 0.9
      }
    },
    {
      "name": "GardenerAccent",
      "pbrMetallicRoughness": {
        "baseColorFactor": [
          0.92,
          0.8,
          0.45,
          1
        ],
        "metallicFactor": 0,
        "roughnessFactor": 0.88
      }
    },
    {
      "name": "GardenerCloth",
      "pbrMetallicRoughness": {
        "baseColorFactor": [
          0.36,
          0.6,
          0.38,
          1
        ],
        "metallicFactor": 0,
        "roughnessFactor": 0.9
      }
    }
  ],
  "animations": [
    {
      "name": "Idle",
      "samplers": [
        {
          "input": 18,
          "output": 19,
          "interpolation": "LINEAR"
        },
        {
          "input": 18,
          "output": 20,
          "interpolation": "LINEAR"
        },
        {
          "input": 18,
          "output": 21,
          "interpolation": "LINEAR"
        },
        {
          "input": 18,
          "output": 22,
          "interpolation": "LINEAR"
        }
      ],
      "channels": [
        {
          "sampler": 0,
          "target": {
            "node": 1,
            "path": "scale"
          }
        },
        {
          "sampler": 1,
          "target": {
            "node": 3,
            "path": "rotation"
          }
        },
        {
          "sampler": 2,
          "target": {
            "node": 5,
            "path": "rotation"
          }
        },
        {
          "sampler": 3,
          "target": {
            "node": 6,
            "path": "rotation"
          }
        }
      ]
    },
    {
      "name": "Walk",
      "samplers": [
        {
          "input": 23,
          "output": 24,
          "interpolation": "LINEAR"
        },
        {
          "input": 23,
          "output": 25,
          "interpolation": "LINEAR"
        },
        {
          "input": 23,
          "output": 26,
          "interpolation": "LINEAR"
        },
        {
          "input": 23,
          "output": 27,
          "interpolation": "LINEAR"
        },
        {
          "input": 23,
          "output": 28,
          "interpolation": "LINEAR"
        },
        {
          "input": 23,
          "output": 29,
          "interpolation": "LINEAR"
        }
      ],
      "channels": [
        {
          "sampler": 0,
          "target": {
            "node": 1,
            "path": "translation"
          }
        },
        {
          "sampler": 1,
          "target": {
            "node": 9,
            "path": "rotation"
          }
        },
        {
          "sampler": 2,
          "target": {
            "node": 10,
            "path": "rotation"
          }
        },
        {
          "sampler": 3,
          "target": {
            "node": 11,
            "path": "rotation"
          }
        },
        {
          "sampler": 4,
          "target": {
            "node": 12,
            "path": "rotation"
          }
        },
        {
          "sampler": 5,
          "target": {
            "node": 3,
            "path": "rotation"
          }
        }
      ]
    }
  ]
}
