{
  "asset": {
    "version": "2.0",
    "generator": "Bunnyland 3D repo asset generator"
  },
  "scene": 0,
  "scenes": [
    {
      "nodes": [
        0
      ]
    }
  ],
  "nodes": [
    {
      "name": "Avatar",
      "children": [
        1,
        2,
        3,
        4,
        5,
        6,
        7,
        8,
        9
      ]
    },
    {
      "name": "Body",
      "mesh": 0,
      "translation": [
        0,
        0.78,
        0
      ],
      "scale": [
        0.72,
        0.9,
        0.48
      ]
    },
    {
      "name": "Head",
      "mesh": 0,
      "translation": [
        0,
        1.48,
        0
      ],
      "scale": [
        0.58,
        0.52,
        0.54
      ]
    },
    {
      "name": "Ear.L",
      "mesh": 0,
      "translation": [
        -0.18,
        1.98,
        0
      ],
      "rotation": [
        0,
        0,
        0.087,
        0.996
      ],
      "scale": [
        0.14,
        0.62,
        0.14
      ]
    },
    {
      "name": "Ear.R",
      "mesh": 0,
      "translation": [
        0.18,
        1.98,
        0
      ],
      "rotation": [
        0,
        0,
        -0.087,
        0.996
      ],
      "scale": [
        0.14,
        0.62,
        0.14
      ]
    },
    {
      "name": "Leg.L",
      "mesh": 0,
      "translation": [
        -0.21,
        0.26,
        0
      ],
      "scale": [
        0.22,
        0.46,
        0.27
      ]
    },
    {
      "name": "Leg.R",
      "mesh": 0,
      "translation": [
        0.21,
        0.26,
        0
      ],
      "scale": [
        0.22,
        0.46,
        0.27
      ]
    },
    {
      "name": "Arm.L",
      "mesh": 0,
      "translation": [
        -0.46,
        0.9,
        0
      ],
      "scale": [
        0.17,
        0.55,
        0.2
      ]
    },
    {
      "name": "Arm.R",
      "mesh": 0,
      "translation": [
        0.46,
        0.9,
        0
      ],
      "scale": [
        0.17,
        0.55,
        0.2
      ]
    },
    {
      "name": "Tail",
      "mesh": 0,
      "translation": [
        0,
        0.76,
        -0.34
      ],
      "scale": [
        0.28,
        0.28,
        0.28
      ]
    }
  ],
  "meshes": [
    {
      "name": "LowPolyCube",
      "primitives": [
        {
          "attributes": {
            "POSITION": 0,
            "NORMAL": 1
          },
          "indices": 2,
          "material": 0
        }
      ]
    }
  ],
  "materials": [
    {
      "name": "AvatarTint",
      "pbrMetallicRoughness": {
        "baseColorFactor": [
          0.537,
          0.706,
          0.98,
          1
        ],
        "metallicFactor": 0,
        "roughnessFactor": 0.78
      }
    }
  ],
  "animations": [
    {
      "name": "Idle",
      "samplers": [
        {
          "input": 3,
          "output": 4,
          "interpolation": "LINEAR"
        }
      ],
      "channels": [
        {
          "sampler": 0,
          "target": {
            "node": 2,
            "path": "translation"
          }
        }
      ]
    },
    {
      "name": "Walk",
      "samplers": [
        {
          "input": 5,
          "output": 6,
          "interpolation": "LINEAR"
        },
        {
          "input": 5,
          "output": 7,
          "interpolation": "LINEAR"
        }
      ],
      "channels": [
        {
          "sampler": 0,
          "target": {
            "node": 5,
            "path": "rotation"
          }
        },
        {
          "sampler": 1,
          "target": {
            "node": 6,
            "path": "rotation"
          }
        },
        {
          "sampler": 1,
          "target": {
            "node": 7,
            "path": "rotation"
          }
        },
        {
          "sampler": 0,
          "target": {
            "node": 8,
            "path": "rotation"
          }
        }
      ]
    }
  ],
  "buffers": [
    {
      "byteLength": 876,
      "uri": "data:application/octet-stream;base64,"
    }
  ],
  "bufferViews": [
    {
      "buffer": 0,
      "byteOffset": 0,
      "byteLength": 288,
      "target": 34962
    },
    {
      "buffer": 0,
      "byteOffset": 288,
      "byteLength": 288,
      "target": 34962
    },
    {
      "buffer": 0,
      "byteOffset": 576,
      "byteLength": 72,
      "target": 34963
    },
    {
      "buffer": 0,
      "byteOffset": 648,
      "byteLength": 12
    },
    {
      "buffer": 0,
      "byteOffset": 660,
      "byteLength": 36
    },
    {
      "buffer": 0,
      "byteOffset": 696,
      "byteLength": 20
    },
    {
      "buffer": 0,
      "byteOffset": 716,
      "byteLength": 80
    },
    {
      "buffer": 0,
      "byteOffset": 796,
      "byteLength": 80
    }
  ],
  "accessors": [
    {
      "bufferView": 0,
      "componentType": 5126,
      "count": 24,
      "type": "VEC3",
      "min": [
        -0.5,
        -0.5,
        -0.5
      ],
      "max": [
        0.5,
        0.5,
        0.5
      ]
    },
    {
      "bufferView": 1,
      "componentType": 5126,
      "count": 24,
      "type": "VEC3"
    },
    {
      "bufferView": 2,
      "componentType": 5123,
      "count": 36,
      "type": "SCALAR"
    },
    {
      "bufferView": 3,
      "componentType": 5126,
      "count": 3,
      "type": "SCALAR",
      "min": [
        0
      ],
      "max": [
        2
      ]
    },
    {
      "bufferView": 4,
      "componentType": 5126,
      "count": 3,
      "type": "VEC3"
    },
    {
      "bufferView": 5,
      "componentType": 5126,
      "count": 5,
      "type": "SCALAR",
      "min": [
        0
      ],
      "max": [
        1
      ]
    },
    {
      "bufferView": 6,
      "componentType": 5126,
      "count": 5,
      "type": "VEC4"
    },
    {
      "bufferView": 7,
      "componentType": 5126,
      "count": 5,
      "type": "VEC4"
    }
  ]
}
