{
  "asset": {
    "version": "2.0",
    "generator": "Bunnyland 3D repo asset generator"
  },
  "buffers": [
    {
      "byteLength": 7760,
      "uri": "data:application/octet-stream;base64,"
    }
  ],
  "bufferViews": [
    {
      "buffer": 0,
      "byteOffset": 0,
      "byteLength": 840,
      "target": 34962
    },
    {
      "buffer": 0,
      "byteOffset": 840,
      "byteLength": 840,
      "target": 34962
    },
    {
      "buffer": 0,
      "byteOffset": 1680,
      "byteLength": 720,
      "target": 34963
    },
    {
      "buffer": 0,
      "byteOffset": 2400,
      "byteLength": 264,
      "target": 34962
    },
    {
      "buffer": 0,
      "byteOffset": 2664,
      "byteLength": 264,
      "target": 34962
    },
    {
      "buffer": 0,
      "byteOffset": 2928,
      "byteLength": 240,
      "target": 34963
    },
    {
      "buffer": 0,
      "byteOffset": 3168,
      "byteLength": 240,
      "target": 34962
    },
    {
      "buffer": 0,
      "byteOffset": 3408,
      "byteLength": 240,
      "target": 34962
    },
    {
      "buffer": 0,
      "byteOffset": 3648,
      "byteLength": 216,
      "target": 34963
    },
    {
      "buffer": 0,
      "byteOffset": 3864,
      "byteLength": 1080,
      "target": 34962
    },
    {
      "buffer": 0,
      "byteOffset": 4944,
      "byteLength": 1080,
      "target": 34962
    },
    {
      "buffer": 0,
      "byteOffset": 6024,
      "byteLength": 960,
      "target": 34963
    },
    {
      "buffer": 0,
      "byteOffset": 6984,
      "byteLength": 96,
      "target": 34962
    },
    {
      "buffer": 0,
      "byteOffset": 7080,
      "byteLength": 96,
      "target": 34962
    },
    {
      "buffer": 0,
      "byteOffset": 7176,
      "byteLength": 72,
      "target": 34963
    },
    {
      "buffer": 0,
      "byteOffset": 7248,
      "byteLength": 12
    },
    {
      "buffer": 0,
      "byteOffset": 7260,
      "byteLength": 36
    },
    {
      "buffer": 0,
      "byteOffset": 7296,
      "byteLength": 48
    },
    {
      "buffer": 0,
      "byteOffset": 7344,
      "byteLength": 48
    },
    {
      "buffer": 0,
      "byteOffset": 7392,
      "byteLength": 48
    },
    {
      "buffer": 0,
      "byteOffset": 7440,
      "byteLength": 20
    },
    {
      "buffer": 0,
      "byteOffset": 7460,
      "byteLength": 60
    },
    {
      "buffer": 0,
      "byteOffset": 7520,
      "byteLength": 80
    },
    {
      "buffer": 0,
      "byteOffset": 7600,
      "byteLength": 80
    },
    {
      "buffer": 0,
      "byteOffset": 7680,
      "byteLength": 80
    }
  ],
  "accessors": [
    {
      "bufferView": 0,
      "componentType": 5126,
      "count": 70,
      "type": "VEC3",
      "min": [
        -0.5,
        -0.5,
        -0.4755282581475768
      ],
      "max": [
        0.5,
        0.5,
        0.4755282581475768
      ]
    },
    {
      "bufferView": 1,
      "componentType": 5126,
      "count": 70,
      "type": "VEC3"
    },
    {
      "bufferView": 2,
      "componentType": 5123,
      "count": 360,
      "type": "SCALAR"
    },
    {
      "bufferView": 3,
      "componentType": 5126,
      "count": 22,
      "type": "VEC3",
      "min": [
        -0.5,
        -0.5,
        -0.4755282581475768
      ],
      "max": [
        0.5,
        0.5,
        0.4755282581475768
      ]
    },
    {
      "bufferView": 4,
      "componentType": 5126,
      "count": 22,
      "type": "VEC3"
    },
    {
      "bufferView": 5,
      "componentType": 5123,
      "count": 120,
      "type": "SCALAR"
    },
    {
      "bufferView": 6,
      "componentType": 5126,
      "count": 20,
      "type": "VEC3",
      "min": [
        -0.4698463103929542,
        -0.5,
        -0.49240387650610407
      ],
      "max": [
        0.5,
        0.5,
        0.492403876506104
      ]
    },
    {
      "bufferView": 7,
      "componentType": 5126,
      "count": 20,
      "type": "VEC3"
    },
    {
      "bufferView": 8,
      "componentType": 5123,
      "count": 108,
      "type": "SCALAR"
    },
    {
      "bufferView": 9,
      "componentType": 5126,
      "count": 90,
      "type": "VEC3",
      "min": [
        -0.5,
        -0.74,
        -0.4755282581475768
      ],
      "max": [
        0.5,
        0.74,
        0.4755282581475768
      ]
    },
    {
      "bufferView": 10,
      "componentType": 5126,
      "count": 90,
      "type": "VEC3"
    },
    {
      "bufferView": 11,
      "componentType": 5123,
      "count": 480,
      "type": "SCALAR"
    },
    {
      "bufferView": 12,
      "componentType": 5126,
      "count": 8,
      "type": "VEC3",
      "min": [
        -0.44,
        -0.44,
        -0.44
      ],
      "max": [
        0.44,
        0.44,
        0.44
      ]
    },
    {
      "bufferView": 13,
      "componentType": 5126,
      "count": 8,
      "type": "VEC3"
    },
    {
      "bufferView": 14,
      "componentType": 5123,
      "count": 36,
      "type": "SCALAR"
    },
    {
      "bufferView": 15,
      "componentType": 5126,
      "count": 3,
      "type": "SCALAR",
      "min": [
        0
      ],
      "max": [
        2
      ]
    },
    {
      "bufferView": 16,
      "componentType": 5126,
      "count": 3,
      "type": "VEC3"
    },
    {
      "bufferView": 17,
      "componentType": 5126,
      "count": 3,
      "type": "VEC4"
    },
    {
      "bufferView": 18,
      "componentType": 5126,
      "count": 3,
      "type": "VEC4"
    },
    {
      "bufferView": 19,
      "componentType": 5126,
      "count": 3,
      "type": "VEC4"
    },
    {
      "bufferView": 20,
      "componentType": 5126,
      "count": 5,
      "type": "SCALAR",
      "min": [
        0
      ],
      "max": [
        1
      ]
    },
    {
      "bufferView": 21,
      "componentType": 5126,
      "count": 5,
      "type": "VEC3"
    },
    {
      "bufferView": 22,
      "componentType": 5126,
      "count": 5,
      "type": "VEC4"
    },
    {
      "bufferView": 23,
      "componentType": 5126,
      "count": 5,
      "type": "VEC4"
    },
    {
      "bufferView": 24,
      "componentType": 5126,
      "count": 5,
      "type": "VEC4"
    }
  ],
  "scene": 0,
  "scenes": [
    {
      "nodes": [
        0
      ]
    }
  ],
  "nodes": [
    {
      "name": "GenericProp",
      "children": [
        1,
        2,
        3,
        4,
        5,
        6
      ]
    },
    {
      "name": "Crate.Body",
      "mesh": 0,
      "translation": [
        0,
        0.4,
        0
      ],
      "scale": [
        0.78,
        0.7,
        0.68
      ]
    },
    {
      "name": "Crate.Top",
      "mesh": 1,
      "translation": [
        0,
        0.79,
        0
      ],
      "scale": [
        0.88,
        0.12,
        0.78
      ]
    },
    {
      "name": "Crate.Band.L",
      "mesh": 1,
      "translation": [
        -0.31,
        0.4,
        0.35
      ],
      "scale": [
        0.09,
        0.72,
        0.07
      ]
    },
    {
      "name": "Crate.Band.R",
      "mesh": 1,
      "translation": [
        0.31,
        0.4,
        0.35
      ],
      "scale": [
        0.09,
        0.72,
        0.07
      ]
    },
    {
      "name": "Crate.Foot.L",
      "mesh": 1,
      "translation": [
        -0.25,
        0.06,
        0
      ],
      "scale": [
        0.2,
        0.12,
        0.58
      ]
    },
    {
      "name": "Crate.Foot.R",
      "mesh": 1,
      "translation": [
        0.25,
        0.06,
        0
      ],
      "scale": [
        0.2,
        0.12,
        0.58
      ]
    }
  ],
  "meshes": [
    {
      "name": "CrateBodyMesh",
      "primitives": [
        {
          "attributes": {
            "POSITION": 12,
            "NORMAL": 13
          },
          "indices": 14,
          "material": 0
        }
      ]
    },
    {
      "name": "CrateTrimMesh",
      "primitives": [
        {
          "attributes": {
            "POSITION": 12,
            "NORMAL": 13
          },
          "indices": 14,
          "material": 1
        }
      ]
    }
  ],
  "materials": [
    {
      "name": "CrateWood",
      "pbrMetallicRoughness": {
        "baseColorFactor": [
          0.53,
          0.34,
          0.16,
          1
        ],
        "metallicFactor": 0,
        "roughnessFactor": 0.9
      }
    },
    {
      "name": "CrateTrim",
      "pbrMetallicRoughness": {
        "baseColorFactor": [
          0.24,
          0.17,
          0.11,
          1
        ],
        "metallicFactor": 0.05,
        "roughnessFactor": 0.78
      }
    }
  ],
  "extras": {
    "asset_name": "prop.generic"
  }
}
