{
  "asset": {
    "version": "2.0",
    "generator": "Bunnyland 3D repo asset generator"
  },
  "scene": 0,
  "scenes": [
    {
      "nodes": [
        0,
        1
      ]
    }
  ],
  "nodes": [
    {
      "name": "LanternFrame",
      "mesh": 0,
      "translation": [
        0,
        0.28,
        0
      ],
      "scale": [
        0.44,
        0.56,
        0.44
      ]
    },
    {
      "name": "LanternGlow",
      "mesh": 1,
      "translation": [
        0,
        0.32,
        0
      ],
      "scale": [
        0.28,
        0.3,
        0.28
      ]
    }
  ],
  "meshes": [
    {
      "name": "LanternFrameMesh",
      "primitives": [
        {
          "attributes": {
            "POSITION": 0,
            "NORMAL": 1
          },
          "indices": 2,
          "material": 0
        }
      ]
    },
    {
      "name": "LanternGlowMesh",
      "primitives": [
        {
          "attributes": {
            "POSITION": 0,
            "NORMAL": 1
          },
          "indices": 2,
          "material": 1
        }
      ]
    }
  ],
  "materials": [
    {
      "name": "LanternFrame",
      "pbrMetallicRoughness": {
        "baseColorFactor": [
          0.25,
          0.28,
          0.3,
          1
        ],
        "metallicFactor": 0.3,
        "roughnessFactor": 0.6
      }
    },
    {
      "name": "LanternGlow",
      "emissiveFactor": [
        1,
        0.55,
        0.12
      ],
      "pbrMetallicRoughness": {
        "baseColorFactor": [
          1,
          0.72,
          0.25,
          1
        ],
        "metallicFactor": 0,
        "roughnessFactor": 0.4
      }
    }
  ],
  "buffers": [
    {
      "byteLength": 876,
      "uri": "data:application/octet-stream;base64,"
    }
  ],
  "bufferViews": [
    {
      "buffer": 0,
      "byteOffset": 0,
      "byteLength": 288,
      "target": 34962
    },
    {
      "buffer": 0,
      "byteOffset": 288,
      "byteLength": 288,
      "target": 34962
    },
    {
      "buffer": 0,
      "byteOffset": 576,
      "byteLength": 72,
      "target": 34963
    },
    {
      "buffer": 0,
      "byteOffset": 648,
      "byteLength": 12
    },
    {
      "buffer": 0,
      "byteOffset": 660,
      "byteLength": 36
    },
    {
      "buffer": 0,
      "byteOffset": 696,
      "byteLength": 20
    },
    {
      "buffer": 0,
      "byteOffset": 716,
      "byteLength": 80
    },
    {
      "buffer": 0,
      "byteOffset": 796,
      "byteLength": 80
    }
  ],
  "accessors": [
    {
      "bufferView": 0,
      "componentType": 5126,
      "count": 24,
      "type": "VEC3",
      "min": [
        -0.5,
        -0.5,
        -0.5
      ],
      "max": [
        0.5,
        0.5,
        0.5
      ]
    },
    {
      "bufferView": 1,
      "componentType": 5126,
      "count": 24,
      "type": "VEC3"
    },
    {
      "bufferView": 2,
      "componentType": 5123,
      "count": 36,
      "type": "SCALAR"
    },
    {
      "bufferView": 3,
      "componentType": 5126,
      "count": 3,
      "type": "SCALAR",
      "min": [
        0
      ],
      "max": [
        2
      ]
    },
    {
      "bufferView": 4,
      "componentType": 5126,
      "count": 3,
      "type": "VEC3"
    },
    {
      "bufferView": 5,
      "componentType": 5126,
      "count": 5,
      "type": "SCALAR",
      "min": [
        0
      ],
      "max": [
        1
      ]
    },
    {
      "bufferView": 6,
      "componentType": 5126,
      "count": 5,
      "type": "VEC4"
    },
    {
      "bufferView": 7,
      "componentType": 5126,
      "count": 5,
      "type": "VEC4"
    }
  ],
  "extras": {
    "asset_name": "prop.lantern"
  }
}
